<svg width="512" height="512" viewBox="0 0 512 512" fill="none" xmlns="http://www.w3.org/2000/svg">
<g clip-path="url(#clip0_413_3417)">
<path d="M256 512C397.385 512 512 397.385 512 256C512 114.615 397.385 0 256 0C114.615 0 0 114.615 0 256C0 397.385 114.615 512 256 512Z" fill="black"/>
<path d="M255.03 33.813C253.196 33.806 251.366 33.806 249.53 33.843C242.8 33.983 236.068 34.448 229.375 35.187C229.708 35.353 229.919 35.507 229.845 35.625L204.78 75.063L278.687 124.5L278.562 124.688L349.187 124.968L371 79.282L342.844 52C326.978 45.204 310.351 40.224 293.374 37.22C280.724 34.98 267.877 33.86 255.031 33.813H255.03ZM190.907 88.25L117.251 125.03L103.438 223.437L154.782 257.094L249.127 213.656L264.002 137.156L190.908 88.25H190.907ZM387.251 88.594L366.001 133.094L402.751 205.814L464.814 244.719L476.126 223.437C476.351 223.58 476.576 223.84 476.782 224.187C476.012 219.233 475.072 214.294 473.972 209.405C467.526 180.815 455.382 153.443 438.472 129.435C429.402 116.563 418.946 104.657 407.377 93.935L387.252 88.593L387.251 88.594ZM84.595 111.594C77.689 119.639 71.338 128.154 65.657 137.094C49.981 161.758 39.217 189.588 34.22 218.406C31.783 232.446 30.714 246.73 31 261L51.25 266.094L84.28 225.594L98.75 122.53L84.594 111.594H84.595ZM397.314 224.438L341.501 269.188L338.031 370.281L377.657 391.407L454.845 341.813L459.251 263.063L459.157 263.22L397.313 224.437L397.314 224.438ZM256.47 230.844L162.437 274.156L161.219 350.781L250.374 408.157L319.312 371.72L322.749 269.97L256.469 230.844H256.47ZM32.25 280.594C33.16 289.03 34.54 297.41 36.406 305.688C42.851 334.278 55.026 361.648 71.938 385.656C75.811 391.156 79.958 396.461 84.312 401.594L74.938 353.438L75.062 353.406L48.032 284.562L32.25 280.594V280.594ZM149.438 365.438L97.906 373.594L108.031 425.688C116.608 433.178 125.738 440.02 135.345 446.125C149.957 455.412 165.677 463.005 182.032 468.719L244.658 455.029L240.314 423.905L149.439 365.435L149.438 365.438ZM451.875 365.938L387.655 407.188L345.655 454.563L350.063 460.719C362.09 455.174 373.633 448.575 384.469 440.999C408.439 424.239 429.073 402.695 444.749 378.029C447.259 374.082 449.619 370.039 451.874 365.937L451.875 365.938ZM329.095 463.594L249.155 473.219L223.187 478.874C250.18 482.874 277.904 481.918 304.5 476.061C313.912 473.989 323.184 471.271 332.25 467.999L329.094 463.593L329.095 463.594Z" fill="white"/>
</g>
<defs>
<clipPath id="clip0_413_3417">
<rect width="512" height="512" fill="white"/>
</clipPath>
</defs>
</svg>
