<svg width="315" height="174" viewBox="0 0 315 174" fill="none" xmlns="http://www.w3.org/2000/svg">
<path d="M17.2272 66V30.8751H49.6201V37.9488H24.3497V44.8763H44.6929V51.9988H24.3497V66H17.2272ZM59.1164 66C57.8805 66 56.7259 65.691 55.6527 65.0731C54.6119 64.4226 53.7826 63.577 53.1646 62.5363C52.5467 61.4956 52.2377 60.3572 52.2377 59.1214V37.7049H59.1651V58.7799C59.1651 58.8449 59.1977 58.91 59.2627 58.975C59.3278 59.0401 59.3928 59.0726 59.4579 59.0726H73.703C73.768 59.0726 73.8331 59.0401 73.8981 58.975C73.9631 58.91 73.9957 58.8449 73.9957 58.7799V37.7049H80.9231V59.1214C80.9231 60.3572 80.6141 61.4956 79.9962 62.5363C79.3782 63.577 78.5489 64.4226 77.5082 65.0731C76.4674 65.691 75.3129 66 74.0445 66H59.1164ZM91.9423 66C90.6739 66 89.5193 65.691 88.4786 65.0731C87.4379 64.4226 86.5923 63.577 85.9418 62.5363C85.3239 61.4956 85.0149 60.3572 85.0149 59.1214V29.1676H91.9423V37.7049H102.724V44.6323H91.9423V58.7799C91.9423 58.8449 91.9748 58.91 92.0399 58.975C92.1049 59.0401 92.17 59.0726 92.235 59.0726H102.724V66H91.9423ZM50.0281 127V91.8751H82.4211V98.9488H57.1507V105.876H77.4939V112.999H57.1507V127H50.0281ZM91.9173 127C90.6815 127 89.5269 126.691 88.4536 126.073C87.4129 125.423 86.5836 124.577 85.9656 123.536C85.3477 122.496 85.0387 121.357 85.0387 120.121V98.7049H91.9661V119.78C91.9661 119.845 91.9986 119.91 92.0637 119.975C92.1287 120.04 92.1938 120.073 92.2588 120.073H106.504C106.569 120.073 106.634 120.04 106.699 119.975C106.764 119.91 106.797 119.845 106.797 119.78V98.7049H113.724V120.121C113.724 121.357 113.415 122.496 112.797 123.536C112.179 124.577 111.35 125.423 110.309 126.073C109.268 126.691 108.114 127 106.845 127H91.9173ZM119.056 127V98.7049H140.862C142.131 98.7049 143.285 99.0302 144.326 99.6806C145.367 100.299 146.196 101.128 146.814 102.169C147.432 103.209 147.741 104.348 147.741 105.584V127H140.814V105.925C140.814 105.86 140.781 105.795 140.716 105.73C140.684 105.665 140.618 105.632 140.521 105.632H126.276C126.211 105.632 126.146 105.665 126.081 105.73C126.016 105.795 125.983 105.86 125.983 105.925V127H119.056ZM158.439 127C157.138 127 155.967 126.691 154.926 126.073C153.886 125.423 153.056 124.577 152.438 123.536C151.821 122.496 151.512 121.357 151.512 120.121V105.584C151.512 104.348 151.821 103.209 152.438 102.169C153.056 101.128 153.886 100.299 154.926 99.6806C155.967 99.0302 157.138 98.7049 158.439 98.7049H173.318V89.4358H180.246V127H158.439ZM158.78 120.073H173.026C173.091 120.073 173.156 120.04 173.221 119.975C173.286 119.91 173.318 119.845 173.318 119.78V105.925C173.318 105.86 173.286 105.795 173.221 105.73C173.156 105.665 173.091 105.632 173.026 105.632H158.78C158.715 105.632 158.65 105.665 158.585 105.73C158.52 105.795 158.488 105.86 158.488 105.925V119.78C158.488 119.845 158.52 119.91 158.585 119.975C158.65 120.04 158.715 120.073 158.78 120.073ZM192.344 127C191.108 127 189.953 126.691 188.88 126.073C187.839 125.423 187.01 124.577 186.392 123.536C185.774 122.496 185.465 121.357 185.465 120.121V109.34H207.223V105.925C207.223 105.86 207.191 105.795 207.126 105.73C207.061 105.665 206.996 105.632 206.93 105.632H185.465V98.7049H207.272C208.54 98.7049 209.695 99.0302 210.736 99.6806C211.776 100.299 212.606 101.128 213.224 102.169C213.842 103.209 214.151 104.348 214.151 105.584V127H192.344ZM192.685 120.073H207.223V115.536H192.393V119.78C192.393 119.845 192.425 119.91 192.49 119.975C192.555 120.04 192.62 120.073 192.685 120.073ZM205.223 95.1436C203.369 95.1436 201.532 94.4607 199.71 93.0947C197.954 91.7287 196.474 91.0457 195.271 91.0457H191.807V85.7282H195.905C197.629 85.7282 199.304 86.4275 200.93 87.826C202.589 89.257 204.15 89.9725 205.613 89.9725H209.858V95.1436H205.223Z" fill="black"/>
<path d="M106.886 66V30.8751H112.301L126.887 48.2424L141.474 30.8751H146.889V66H142.937V35.3633L126.887 54.438L110.837 35.3633V66H106.886ZM157.853 66C156.779 66 155.787 65.7398 154.877 65.2194C153.999 64.6666 153.283 63.951 152.73 63.0729C152.21 62.1623 151.95 61.1703 151.95 60.0971V49.8523H176.732V43.6079C176.732 43.0875 176.537 42.6484 176.147 42.2907C175.789 41.9004 175.35 41.7053 174.83 41.7053H151.95V37.7049H174.83C175.935 37.7049 176.927 37.9814 177.806 38.5343C178.716 39.0546 179.432 39.7701 179.952 40.6808C180.505 41.5589 180.781 42.5346 180.781 43.6079V66H157.853ZM157.853 61.9997H176.732V53.8526H155.95V60.0971C155.95 60.6174 156.129 61.0728 156.487 61.463C156.877 61.8208 157.332 61.9997 157.853 61.9997ZM185.92 77.2205V37.7049H208.849C209.922 37.7049 210.898 37.9814 211.776 38.5343C212.687 39.0546 213.402 39.7701 213.923 40.6808C214.475 41.5589 214.752 42.5346 214.752 43.6079V60.0971C214.752 61.1703 214.475 62.1623 213.923 63.0729C213.402 63.951 212.687 64.6666 211.776 65.2194C210.898 65.7398 209.922 66 208.849 66H189.92V77.2205H185.92ZM191.872 61.9997H208.849C209.369 61.9997 209.808 61.8208 210.166 61.463C210.556 61.0728 210.752 60.6174 210.752 60.0971V43.6079C210.752 43.0875 210.556 42.6484 210.166 42.2907C209.808 41.9004 209.369 41.7053 208.849 41.7053H191.872C191.352 41.7053 190.896 41.9004 190.506 42.2907C190.116 42.6484 189.92 43.0875 189.92 43.6079V60.0971C189.92 60.6174 190.116 61.0728 190.506 61.463C190.896 61.8208 191.352 61.9997 191.872 61.9997ZM224.403 66C223.33 66 222.338 65.7398 221.427 65.2194C220.549 64.6666 219.833 63.951 219.28 63.0729C218.76 62.1623 218.5 61.1703 218.5 60.0971V59.7068H222.5V60.0971C222.5 60.6174 222.679 61.0728 223.037 61.463C223.427 61.8208 223.882 61.9997 224.403 61.9997H241.38C241.9 61.9997 242.339 61.8208 242.697 61.463C243.087 61.0728 243.282 60.6174 243.282 60.0971V55.7552C243.282 55.2349 243.087 54.7958 242.697 54.438C242.339 54.0478 241.9 53.8526 241.38 53.8526H224.403C223.33 53.8526 222.338 53.5924 221.427 53.0721C220.549 52.5192 219.833 51.8037 219.28 50.9256C218.76 50.0149 218.5 49.023 218.5 47.9497V43.6079C218.5 42.5346 218.76 41.5589 219.28 40.6808C219.833 39.7701 220.549 39.0546 221.427 38.5343C222.338 37.9814 223.33 37.7049 224.403 37.7049H241.38C242.486 37.7049 243.478 37.9814 244.356 38.5343C245.266 39.0546 245.982 39.7701 246.502 40.6808C247.055 41.5589 247.332 42.5346 247.332 43.6079V43.9981H243.282V43.6079C243.282 43.0875 243.087 42.6484 242.697 42.2907C242.339 41.9004 241.9 41.7053 241.38 41.7053H224.403C223.882 41.7053 223.427 41.9004 223.037 42.2907C222.679 42.6484 222.5 43.0875 222.5 43.6079V47.9497C222.5 48.4701 222.679 48.9254 223.037 49.3157C223.427 49.6734 223.882 49.8523 224.403 49.8523H241.38C242.486 49.8523 243.478 50.1287 244.356 50.6816C245.266 51.202 245.982 51.9175 246.502 52.8282C247.055 53.7063 247.332 54.682 247.332 55.7552V60.0971C247.332 61.1703 247.055 62.1623 246.502 63.0729C245.982 63.951 245.266 64.6666 244.356 65.2194C243.478 65.7398 242.486 66 241.38 66H224.403Z" fill="black" fill-opacity="0.5"/>
<g clip-path="url(#clip0_413_3422)">
<path d="M286.746 129.014L275.214 128.241C274.376 128.192 273.555 128.418 272.878 128.917C272.202 129.417 271.718 130.109 271.525 130.931L268.69 142.141C266.161 142.818 263.504 143.172 260.765 143.172C258.027 143.172 255.369 142.818 252.841 142.141L250.006 130.931C249.796 130.125 249.313 129.417 248.653 128.917C247.992 128.418 247.155 128.192 246.317 128.241L234.784 129.014C231.949 124.633 230.194 119.478 229.888 113.937L239.665 107.784C240.374 107.333 240.889 106.657 241.147 105.868C241.404 105.078 241.372 104.225 241.066 103.452L236.766 92.7241C240.148 88.6007 244.545 85.347 249.603 83.398L258.494 90.8074C259.139 91.3389 259.944 91.6288 260.765 91.6288C261.587 91.6288 262.408 91.3389 263.037 90.8074L271.928 83.398C276.969 85.347 281.383 88.6007 284.749 92.7241L280.448 103.452C280.142 104.225 280.11 105.078 280.368 105.868C280.626 106.657 281.157 107.333 281.85 107.784L291.627 113.937C291.321 119.478 289.565 124.633 286.73 129.014H286.746ZM260.765 153.481C283.541 153.481 302 135.022 302 112.246C302 89.4705 283.541 71.0115 260.765 71.0115C237.99 71.0115 219.531 89.4705 219.531 112.246C219.531 135.022 237.99 153.481 260.765 153.481ZM263.037 101.019C261.683 100.037 259.847 100.037 258.494 101.019L250.779 106.609C249.426 107.591 248.862 109.331 249.378 110.925L252.325 119.994C252.841 121.588 254.322 122.668 255.998 122.668H265.533C267.208 122.668 268.69 121.588 269.206 119.994L272.153 110.925C272.669 109.331 272.105 107.591 270.752 106.609L263.037 101.003V101.019Z" fill="black"/>
</g>
<rect x="15.1001" y="136.638" width="198.623" height="3.48462" fill="black" fill-opacity="0.49"/>
<rect x="47.623" y="152.9" width="198.623" height="3.48462" fill="black" fill-opacity="0.5"/>
<rect x="29.0383" y="144.769" width="198.623" height="3.48462" fill="black" fill-opacity="0.49"/>
<defs>
<clipPath id="clip0_413_3422">
<rect width="82.4692" height="82.4692" fill="white" transform="translate(219.531 71.0115)"/>
</clipPath>
</defs>
</svg>
