<svg width="512" height="512" viewBox="0 0 512 512" fill="none" xmlns="http://www.w3.org/2000/svg">
<g clip-path="url(#clip0_413_3413)">
<path d="M256 512C397.385 512 512 397.385 512 256C512 114.615 397.385 0 256 0C114.615 0 0 114.615 0 256C0 397.385 114.615 512 256 512Z" fill="black"/>
<path d="M256 23C127.4 23 23 127.4 23 256C23 384.6 127.4 489 256 489C384.6 489 489 384.6 489 256C489 127.4 384.6 23 256 23ZM256 41C374.8 41 471 137.2 471 256C471 374.8 374.8 471 256 471C137.2 471 41 374.8 41 256C41 137.2 137.2 41 256 41ZM229.8 71.98C198.7 80.75 165.7 97.1 138.8 120.9C146.4 125.2 153.9 130 161.2 135.3C186.3 111.8 218.8 92.94 259.5 84.04C248.4 77.33 237.5 73.16 229.8 71.98V71.98ZM279.1 98.83C234.9 105.1 201 123.2 175.4 146.7C185.7 155.8 195.2 166.1 203.5 177.5C224.7 159.5 256 145.6 302.5 138C299.4 122.6 290.2 109.3 279.1 98.83V98.83ZM125.3 134.1C104.5 156.5 89.22 184.4 84.25 217.5C86.36 229.8 90.11 240.2 94.96 249.1C101.7 222.2 114.7 191.9 135.5 164.1C139.5 158.7 143.8 153.5 148.4 148.4C140.9 142.9 133.1 138.2 125.3 134.1V134.1ZM162.6 159.6C158 164.5 153.8 169.6 149.9 174.9C126.8 205.8 114 240.8 109.3 268.4C124 283.1 142.3 290.4 157.8 293.2C160.3 255.5 166 219 190.6 190.3C182.5 178.9 173 168.6 162.6 159.6V159.6ZM444 273.5C411.4 346.1 332.9 426.9 225 429.5C233.1 438.6 274.8 447.6 301.5 438.5C394.9 406.7 430.6 319.2 444 273.5Z" fill="white"/>
</g>
<defs>
<clipPath id="clip0_413_3413">
<rect width="512" height="512" fill="white"/>
</clipPath>
</defs>
</svg>
